<svg id="Capa_1" data-name="Capa 1" xmlns="http://www.w3.org/2000/svg" viewBox="0 0 301.83 303.36"><defs><style>.cls-1{fill:#6f966d;}.cls-2{fill:#668460;}.cls-3{fill:#fefeff;}.cls-4{fill:#fafcfe;}</style></defs><path class="cls-1" d="M90.1,34.52C118.23,17.76,151.47,9.59,184,13.64,218.93,18,252.21,33.8,276.6,59.36A152.44,152.44,0,0,1,314,128.58q.94,3.88,1.65,7.82t1.17,7.8q.46,3.87.72,7.75c.17,2.58.27,5.15.3,7.73s0,5.13-.07,7.69-.23,5.13-.42,7.69a200.53,200.53,0,0,1-5.63,36c0,.16-.38,1.45-.52,1.45-1.54-1.38-3.53-3.2-5-4.66Q244.32,146,182.47,84.15c-1.46-1.46-3-2.8-4.57-4.19-.56-2.46-2.55-1.89-4.19-1.91-3.8,0-7.64.34-11.39-.07-4.48-.49-5.49,1.21-5.47,5.45.17,31.51.09,63,.09,94.53v6.47c-2.14-2-3.41-3.11-4.6-4.3-10.29-10.27-20.52-20.61-30.88-30.81-3.43-3.37-6.53-9.54-10.5-9.2-3.75.33-6.89,6.18-10.59,9.26-3.27,2.72-2.81,4.57,0,7.39,21.4,21.2,42.65,42.55,64,63.83,1.05,1.06,1.85,2.62,3.74,2.44q5.35,5.81,10.69,11.63c-23.21.05-46.42.27-69.62,0-5.18-.05-7.1,1.58-6,6.39.7,3.11-2.27,6.91,1.75,9.36l65.55,65.31-3.16.22c-52.31-3-101-26.59-129.16-72.29C11.87,201,8.72,145,30.05,99.59,42.78,72.52,64.29,49.9,90.1,34.52Z" transform="translate(-16 -12.61)"/><path class="cls-2" d="M178.82,234.67,168.14,223q29.34-29.46,58.68-58.93c3.52-3.55,9.94-6.86,9.72-10.86-.28-4.94-7-7.94-10.55-12.13-1.67-2-2.61-1.7-4.39.12-9.24,9.52-18.56,19-28.11,28.17-5,4.79-9.28,10.35-15.59,14.65V80c1.53,1.39,3.11,2.73,4.57,4.19Q244.33,146,306.18,207.82c1.46,1.46,3.45,3.28,5,4.66-6.56,29.29-30.33,56.61-54,74a153.38,153.38,0,0,1-86.72,29.29l-65.55-65.31c2.08-.07,4.15-.21,6.22-.21q55.07,0,110.13,0c10.37,0,10.12,0,10.41-10.15.13-4.55-1.48-5.39-5.62-5.34C210.33,234.91,194.57,234.72,178.82,234.67Z" transform="translate(-16 -12.61)"/><path class="cls-3" d="M177.9,80v104.1c6.31-4.3,10.62-9.86,15.59-14.65,9.55-9.21,18.87-18.65,28.11-28.17,1.78-1.82,2.72-2.09,4.39-.12,3.55,4.19,10.27,7.19,10.55,12.13.22,4-6.2,7.31-9.72,10.86Q197.54,193.63,168.14,223c-1.9.18-2.7-1.38-3.75-2.44-21.32-21.28-42.57-42.63-64-63.83-2.86-2.82-3.32-4.67,0-7.39,3.7-3.08,6.84-8.93,10.59-9.26,4-.34,7.07,5.83,10.5,9.2,10.36,10.2,20.59,20.54,30.88,30.81,1.19,1.19,2.46,2.3,4.6,4.3V178c0-31.51.08-63-.09-94.53,0-4.24,1-5.94,5.47-5.45,3.75.41,7.59,0,11.39.07C175.35,78.07,177.34,77.5,177.9,80Z" transform="translate(-16 -12.61)"/><path class="cls-4" d="M178.82,234.67c15.75.05,31.51.24,47.26.06,4.14,0,5.75.79,5.62,5.34-.29,10.14,0,10.15-10.41,10.15q-55.06,0-110.13,0c-2.07,0-4.14.14-6.22.21-4-2.45-1-6.25-1.75-9.36-1.09-4.81.83-6.44,6-6.39C132.4,234.94,155.61,234.72,178.82,234.67Z" transform="translate(-16 -12.61)"/><path class="cls-4" d="M293.15,249.39c1,1.48-.56.78-.95,1.08Z" transform="translate(-16 -12.61)"/></svg>